<svg width="175" height="115" viewBox="0 0 175 115" fill="none" xmlns="http://www.w3.org/2000/svg">
<mask id="path-1-outside-1_12_15" maskUnits="userSpaceOnUse" x="0" y="0" width="175" height="115" fill="black">
<rect fill="white" width="175" height="115"/>
<path fill-rule="evenodd" clip-rule="evenodd" d="M25 5C13.9543 5 5 13.9543 5 25L5 65C5 76.0457 13.9543 85 25 85H35.5014C35.4991 85.1715 35.5417 85.3482 35.6383 85.5144L49.2234 108.881C49.615 109.555 50.5922 109.542 50.9656 108.858L63.5552 85.8015C63.6992 85.5377 63.7107 85.2505 63.6245 85H150C161.046 85 170 76.0457 170 65V25C170 13.9543 161.046 5 150 5L25 5Z"/>
</mask>
<path fill-rule="evenodd" clip-rule="evenodd" d="M25 5C13.9543 5 5 13.9543 5 25L5 65C5 76.0457 13.9543 85 25 85H35.5014C35.4991 85.1715 35.5417 85.3482 35.6383 85.5144L49.2234 108.881C49.615 109.555 50.5922 109.542 50.9656 108.858L63.5552 85.8015C63.6992 85.5377 63.7107 85.2505 63.6245 85H150C161.046 85 170 76.0457 170 65V25C170 13.9543 161.046 5 150 5L25 5Z" fill="#0BA58B"/>
<path d="M35.5014 85L40.5009 85.0683L40.5702 80H35.5014V85ZM35.6383 85.5144L39.9609 83.0014L39.9609 83.0014L35.6383 85.5144ZM49.2234 108.881L53.546 106.368L53.546 106.368L49.2234 108.881ZM50.9656 108.858L55.354 111.254L55.354 111.254L50.9656 108.858ZM63.5552 85.8015L67.9436 88.1977L67.9436 88.1977L63.5552 85.8015ZM63.6245 85V80H56.6177L58.8963 86.626L63.6245 85ZM10 25C10 16.7157 16.7157 10 25 10V0C11.1929 0 0 11.1929 0 25H10ZM10 65L10 25H0L0 65H10ZM25 80C16.7157 80 10 73.2843 10 65H0C0 78.8071 11.1929 90 25 90V80ZM35.5014 80H25V90H35.5014V80ZM39.9609 83.0014C40.3273 83.6316 40.5108 84.3494 40.5009 85.0683L30.5019 84.9317C30.4873 85.9937 30.7561 87.0648 31.3158 88.0275L39.9609 83.0014ZM53.546 106.368L39.9609 83.0014L31.3158 88.0275L44.9008 111.394L53.546 106.368ZM46.5772 106.462C48.0706 103.727 51.9797 103.674 53.546 106.368L44.9008 111.394C47.2502 115.435 53.1138 115.357 55.354 111.254L46.5772 106.462ZM59.1668 83.4053L46.5772 106.462L55.354 111.254L67.9436 88.1977L59.1668 83.4053ZM58.8963 86.626C58.55 85.619 58.602 84.4396 59.1668 83.4053L67.9436 88.1977C68.7965 86.6357 68.8713 84.882 68.3528 83.374L58.8963 86.626ZM150 80H63.6245V90H150V80ZM165 65C165 73.2843 158.284 80 150 80V90C163.807 90 175 78.8071 175 65H165ZM165 25V65H175V25H165ZM150 10C158.284 10 165 16.7157 165 25H175C175 11.1929 163.807 0 150 0V10ZM25 10L150 10V0L25 0V10Z" fill="#283256" fill-opacity="0.1" mask="url(#path-1-outside-1_12_15)"/>
<circle cx="50.3522" cy="44.2283" r="8" transform="rotate(-15 50.3522 44.2283)" fill="#F2FAF9"/>
<circle cx="76.9481" cy="44.2283" r="8" transform="rotate(-15 76.9481 44.2283)" fill="#F2FAF9"/>
<circle cx="103.544" cy="44.2283" r="8" transform="rotate(-15 103.544 44.2283)" fill="#F2FAF9"/>
<circle cx="130.14" cy="44.2282" r="8" transform="rotate(-15 130.14 44.2282)" fill="#F2FAF9"/>
</svg>
