<svg width="241" height="442" viewBox="0 0 241 442" fill="none" xmlns="http://www.w3.org/2000/svg">
<rect x="5" y="5" width="231" height="432" rx="35" fill="#FBFCFF"/>
<rect x="5" y="5" width="231" height="432" rx="35" stroke="#233053" stroke-width="10"/>
<path fill-rule="evenodd" clip-rule="evenodd" d="M120 120C116.981 120 111.937 121.159 107.19 122.45C102.334 123.763 97.4381 125.316 94.5594 126.256C93.3558 126.654 92.2887 127.383 91.4808 128.359C90.6728 129.336 90.1568 130.521 89.9919 131.777C87.3844 151.364 93.435 165.881 100.776 175.484C103.889 179.592 107.601 183.209 111.788 186.216C113.477 187.41 115.043 188.324 116.373 188.95C117.598 189.528 118.915 190 120 190C121.085 190 122.398 189.528 123.627 188.95C125.23 188.171 126.764 187.256 128.212 186.216C132.399 183.209 136.111 179.592 139.224 175.484C146.565 165.881 152.616 151.364 150.008 131.777C149.844 130.52 149.328 129.335 148.52 128.357C147.712 127.38 146.645 126.65 145.441 126.252C141.262 124.882 137.05 123.613 132.81 122.446C128.063 121.164 123.019 120 120 120ZM129.389 142.514C129.8 142.103 130.357 141.872 130.938 141.872C131.518 141.872 132.075 142.103 132.486 142.514C132.897 142.925 133.128 143.482 133.128 144.062C133.128 144.643 132.897 145.2 132.486 145.611L119.361 158.736C119.158 158.94 118.917 159.102 118.651 159.212C118.385 159.322 118.1 159.379 117.812 159.379C117.525 159.379 117.24 159.322 116.974 159.212C116.708 159.102 116.467 158.94 116.264 158.736L109.701 152.174C109.498 151.97 109.337 151.729 109.226 151.463C109.116 151.197 109.06 150.913 109.06 150.625C109.06 150.337 109.116 150.053 109.226 149.787C109.337 149.521 109.498 149.28 109.701 149.076C109.905 148.873 110.146 148.712 110.412 148.601C110.678 148.491 110.962 148.435 111.25 148.435C111.538 148.435 111.822 148.491 112.088 148.601C112.354 148.712 112.595 148.873 112.799 149.076L117.812 154.094L129.389 142.514Z" fill="#253254"/>
<rect x="78" y="230" width="84" height="10" rx="5" fill="#E4EEF8"/>
</svg>
